<?xml version="1.0" standalone="no"?>
<!DOCTYPE svg PUBLIC "-//W3C//DTD SVG 20010904//EN"
 "http://www.w3.org/TR/2001/REC-SVG-20010904/DTD/svg10.dtd">
<svg version="1.0" xmlns="http://www.w3.org/2000/svg"
 viewBox="113.63 109.99 3351.42 993.35"
 preserveAspectRatio="xMidYMid meet">
<metadata>
Created by potrace 1.16, written by Peter Selinger 2001-2019
</metadata>
<g transform="translate(0.000000,1216.000000) scale(0.100000,-0.100000)"
fill="#ffffff" stroke="none">
<path d="M9815 10951 c-38 -5 -83 -13 -98 -20 -16 -6 -47 -11 -70 -11 -23 0
-76 -9 -117 -21 -41 -12 -106 -30 -145 -40 -169 -47 -323 -103 -381 -140 -33
-21 -69 -39 -80 -39 -10 0 -42 -16 -69 -35 -28 -19 -61 -39 -74 -45 -33 -15
-129 -78 -181 -120 -25 -20 -70 -52 -100 -72 -101 -66 -416 -401 -478 -508
-18 -30 -45 -73 -61 -95 -16 -22 -41 -65 -56 -95 -14 -30 -32 -61 -39 -70 -36
-41 -95 -174 -141 -317 -8 -23 -19 -52 -26 -64 -23 -45 -81 -256 -99 -364 -11
-60 -24 -141 -31 -180 -14 -86 -6 -561 11 -618 6 -20 17 -74 25 -120 16 -92
40 -179 80 -282 14 -38 31 -86 37 -105 5 -19 14 -39 18 -45 4 -5 22 -44 39
-85 18 -41 36 -84 41 -95 32 -72 43 -95 66 -140 50 -97 53 -221 10 -397 -20
-81 -47 -180 -60 -220 -13 -40 -27 -95 -31 -123 -4 -27 -15 -70 -24 -95 -29
-74 -61 -174 -61 -190 0 -14 -26 -87 -57 -160 -9 -19 -21 -55 -28 -80 -7 -25
-27 -83 -44 -130 -17 -47 -31 -92 -31 -100 -1 -8 -9 -33 -20 -55 -11 -22 -19
-47 -20 -55 0 -9 -7 -25 -15 -37 -8 -11 -17 -40 -21 -64 -9 -62 -73 -270 -99
-319 -7 -14 -25 -61 -39 -105 -14 -44 -31 -93 -37 -110 -5 -16 -23 -70 -40
-120 -16 -49 -34 -103 -40 -120 -36 -97 -69 -198 -69 -211 0 -9 -7 -30 -15
-47 -8 -18 -28 -75 -45 -127 -17 -52 -35 -104 -40 -115 -14 -29 -40 -103 -54
-155 -14 -53 -37 -62 -56 -23 -11 26 -88 241 -161 453 -16 47 -38 105 -48 130
-11 25 -31 81 -45 125 -14 44 -37 112 -52 150 -57 154 -107 292 -119 335 -7
25 -19 61 -28 80 -16 38 -67 189 -97 285 -23 76 -47 141 -65 182 -8 17 -15 36
-15 43 0 6 -7 25 -16 42 -9 17 -22 51 -29 77 -7 25 -27 84 -44 131 -17 47 -31
92 -31 100 0 8 -7 29 -16 45 -21 39 -64 160 -64 180 0 9 -9 33 -19 53 -33 65
-61 132 -61 148 0 8 -9 32 -20 54 -11 22 -20 50 -21 62 -1 37 -113 230 -168
292 -45 49 -149 118 -221 146 -30 12 -68 30 -85 40 -84 51 -500 51 -562 -1
-22 -18 -106 -59 -121 -59 -14 0 -125 -93 -188 -159 -65 -66 -134 -201 -195
-381 -17 -52 -35 -99 -39 -105 -5 -5 -15 -35 -23 -65 -18 -66 -34 -112 -57
-165 -10 -22 -27 -74 -39 -115 -13 -41 -32 -106 -43 -145 -22 -74 -48 -151
-77 -225 -10 -25 -24 -61 -31 -80 -12 -35 -19 -55 -51 -145 -10 -27 -29 -86
-43 -130 -13 -44 -31 -93 -40 -110 -9 -16 -16 -37 -16 -45 0 -8 -16 -60 -35
-115 -20 -55 -43 -122 -51 -150 -33 -109 -45 -143 -74 -225 -48 -133 -80 -232
-80 -244 0 -6 -7 -24 -15 -40 -19 -37 -65 -167 -65 -187 -1 -8 -9 -32 -20 -54
-11 -22 -19 -51 -20 -64 0 -13 -16 -56 -37 -97 -38 -78 -65 -96 -78 -51 -4 12
-15 45 -25 72 -10 28 -28 77 -40 110 -12 33 -30 81 -41 108 -43 105 -57 145
-79 217 -13 41 -29 86 -37 100 -14 27 -36 88 -58 160 -8 25 -21 68 -31 95 -57
166 -75 216 -95 265 -30 77 -107 298 -118 340 -6 19 -21 64 -34 100 -14 36
-31 81 -37 100 -35 99 -53 149 -70 185 -9 22 -25 63 -33 90 -56 177 -106 322
-128 373 -11 23 -19 50 -19 60 0 9 -14 55 -31 102 -17 47 -37 107 -45 134 -20
71 -51 153 -71 184 -54 85 -153 189 -228 239 -22 14 -51 34 -65 43 -25 17
-108 46 -210 73 -54 15 -758 16 -781 1 -15 -9 -10 -47 12 -94 12 -25 30 -63
39 -85 10 -22 27 -61 39 -88 11 -26 21 -53 21 -60 1 -6 9 -30 20 -52 11 -22
20 -47 20 -55 0 -8 6 -26 13 -40 7 -14 25 -65 41 -115 15 -49 37 -109 47 -133
10 -23 19 -50 19 -60 1 -9 9 -35 20 -57 11 -22 19 -46 20 -53 0 -7 9 -30 19
-50 30 -59 61 -132 61 -145 1 -6 9 -30 20 -52 11 -22 19 -45 20 -52 0 -7 11
-33 25 -59 14 -26 25 -55 25 -64 0 -9 12 -48 26 -86 14 -38 33 -87 40 -109 8
-22 21 -54 29 -72 8 -17 15 -35 15 -40 0 -5 18 -49 40 -98 22 -50 40 -100 40
-113 0 -13 18 -60 40 -104 22 -45 40 -89 40 -98 1 -8 9 -33 20 -55 11 -22 20
-47 20 -55 0 -8 9 -33 20 -55 11 -22 19 -48 20 -58 0 -11 6 -31 14 -45 31 -57
66 -145 66 -166 0 -11 8 -34 18 -51 24 -40 49 -111 58 -160 3 -22 15 -58 26
-80 11 -22 27 -53 35 -70 8 -16 27 -68 43 -115 16 -47 35 -99 43 -115 36 -72
57 -127 57 -148 0 -12 7 -35 16 -52 14 -28 66 -156 100 -250 8 -22 21 -54 29
-72 8 -17 15 -37 15 -45 1 -7 9 -31 20 -53 11 -22 20 -47 20 -55 0 -8 9 -33
20 -55 11 -22 19 -44 20 -50 0 -16 93 -198 110 -216 152 -163 178 -184 305
-248 162 -81 250 -103 410 -102 68 0 151 7 190 16 39 8 84 15 101 15 20 0 53
15 90 40 33 22 64 40 71 40 19 0 99 45 145 81 67 54 178 181 178 205 0 3 27
60 59 127 33 67 71 154 86 192 14 39 32 86 40 105 7 19 21 60 30 90 9 30 27
75 40 100 12 25 25 63 29 85 8 46 42 161 56 190 5 11 23 62 41 114 17 52 38
106 45 120 8 14 14 32 14 39 0 20 80 263 96 294 9 16 21 49 29 75 29 99 45
150 70 218 14 39 43 120 64 180 21 61 49 135 61 165 40 98 79 214 80 238 0 12
14 48 32 79 17 31 39 83 47 116 18 66 40 89 65 68 9 -8 16 -22 16 -33 0 -10 9
-36 20 -56 33 -64 51 -105 65 -152 17 -57 42 -126 60 -167 8 -17 15 -37 15
-43 0 -7 9 -27 19 -44 10 -17 22 -47 25 -66 4 -19 13 -51 20 -70 8 -19 23 -62
35 -95 13 -33 31 -80 42 -105 10 -25 23 -63 28 -85 13 -54 40 -127 53 -143 6
-7 15 -36 19 -65 5 -29 16 -68 25 -87 50 -105 94 -213 94 -230 0 -7 6 -26 14
-43 25 -55 61 -157 106 -297 23 -74 51 -153 61 -176 11 -23 19 -47 19 -53 0
-12 26 -79 60 -156 9 -22 27 -69 40 -105 12 -36 40 -102 61 -147 21 -46 39
-89 39 -98 0 -77 215 -289 366 -359 17 -8 36 -22 44 -30 7 -9 18 -16 24 -16 6
0 24 -7 39 -15 80 -42 404 -66 502 -37 22 7 65 14 96 17 32 4 69 15 89 28 18
12 65 40 105 62 123 69 143 85 228 180 90 101 95 109 127 210 12 39 27 79 34
90 7 11 23 52 38 90 24 65 30 83 59 168 6 17 20 51 30 75 11 23 19 49 19 57 0
8 9 32 20 52 11 21 20 45 20 53 1 8 9 33 20 55 11 22 20 47 20 55 0 8 7 28 15
43 8 15 19 42 24 60 11 35 47 131 81 217 12 30 27 73 32 95 10 39 37 111 64
170 7 17 25 68 40 115 14 47 34 103 45 125 10 22 28 72 39 110 12 39 30 88 40
110 33 71 57 139 64 179 4 21 16 55 27 75 10 20 19 39 19 44 0 5 35 82 79 172
155 321 318 476 542 515 62 11 302 -8 332 -27 54 -33 732 -70 808 -44 19 6 75
16 125 21 51 5 136 21 191 36 54 14 121 32 148 39 45 12 83 26 182 71 17 8 36
14 42 14 17 0 185 76 211 96 8 6 45 28 82 48 83 44 135 76 168 104 14 12 46
36 72 54 175 122 545 524 630 686 114 217 204 404 214 449 3 15 14 51 24 78
113 312 154 686 114 1033 -16 139 -56 362 -73 404 -5 13 -21 64 -36 113 -15
50 -44 131 -65 180 -21 50 -42 100 -45 112 -25 89 -147 291 -276 456 -166 211
-486 517 -569 542 -14 4 -43 22 -65 40 -60 48 -350 204 -381 205 -5 1 -27 9
-49 20 -22 11 -48 19 -58 20 -10 0 -27 5 -38 10 -63 34 -352 100 -544 125
-150 19 -418 27 -520 16z m460 -616 c104 -16 141 -24 330 -75 73 -19 202 -69
315 -122 85 -40 174 -92 225 -133 22 -17 52 -38 66 -47 44 -28 237 -217 299
-295 102 -126 250 -362 250 -397 0 -8 17 -48 39 -89 21 -42 41 -97 44 -125 3
-26 12 -64 21 -83 48 -111 92 -421 81 -579 -19 -284 -72 -508 -160 -680 -24
-47 -62 -122 -85 -168 -104 -209 -340 -481 -520 -600 -30 -20 -59 -40 -65 -45
-21 -17 -143 -88 -195 -113 -30 -14 -84 -41 -120 -59 -61 -31 -143 -61 -271
-99 -93 -27 -338 -55 -484 -56 -105 0 -368 33 -439 55 -27 8 -62 15 -78 15
-16 0 -45 7 -66 16 -82 34 -180 45 -272 30 -83 -14 -184 -43 -245 -71 -16 -7
-58 -25 -93 -40 -34 -14 -90 -42 -123 -61 -34 -19 -67 -34 -75 -34 -8 0 -39
-15 -70 -32 -123 -73 -142 -79 -163 -54 -8 9 -8 22 -2 37 4 13 12 58 16 99 4
41 13 90 21 109 8 18 25 81 39 140 14 58 32 131 40 161 23 90 38 217 31 271
-6 45 -50 152 -75 183 -8 10 -20 31 -109 196 -19 36 -41 74 -48 85 -8 11 -14
30 -14 43 0 13 -8 36 -19 50 -21 30 -50 129 -61 212 -5 30 -20 100 -35 155
-32 120 -47 318 -35 450 12 122 65 392 91 459 112 289 179 411 329 596 110
135 153 178 255 259 50 38 105 82 123 97 18 15 54 41 80 57 26 16 58 37 72 46
25 16 68 37 165 81 28 12 67 31 87 41 20 11 47 19 60 19 13 0 41 9 63 19 23
10 68 22 100 26 33 4 69 12 80 18 11 6 85 21 165 33 164 26 263 25 435 -1z"/>
<path d="M9357 8776 c-106 -28 -143 -56 -188 -141 -11 -22 -27 -51 -35 -65 -9
-17 -14 -59 -14 -127 0 -101 0 -101 40 -151 53 -68 120 -122 177 -144 229 -87
474 112 432 349 -24 134 -86 218 -202 272 -68 33 -110 34 -210 7z"/>
<path d="M10545 8772 c-71 -24 -165 -119 -194 -196 -56 -149 -12 -292 119
-386 173 -125 403 -60 507 145 70 137 -29 362 -191 434 -59 26 -167 27 -241 3z"/>
<path d="M26611 9036 c-12 -15 -14 -6133 -1 -6141 20 -12 943 -6 951 7 5 7 9
296 9 641 0 740 -19 645 168 840 70 73 168 179 217 235 50 55 97 101 107 102
13 0 159 -200 177 -243 4 -12 78 -120 119 -177 50 -68 122 -181 122 -190 0 -4
6 -13 14 -19 23 -19 106 -146 106 -162 0 -15 36 -68 117 -174 21 -27 50 -67
64 -90 14 -22 60 -92 101 -155 41 -63 90 -141 109 -173 59 -101 73 -122 168
-257 34 -47 66 -96 73 -110 6 -14 23 -37 37 -52 25 -28 25 -28 608 -28 669 0
614 -11 531 104 -29 39 -75 105 -103 146 -152 223 -186 273 -314 455 -19 28
-75 106 -125 173 -161 219 -290 405 -331 477 -16 28 -43 68 -60 90 -17 22 -43
60 -58 85 -15 25 -46 70 -68 100 -22 30 -65 93 -96 140 -31 47 -64 97 -74 112
-11 15 -19 30 -19 33 0 4 -26 39 -58 78 -32 40 -72 95 -88 122 -32 57 -116
181 -173 259 -57 77 -93 150 -84 172 11 31 70 102 188 224 60 63 128 138 150
165 22 28 72 84 111 125 39 41 117 125 175 185 92 98 159 172 294 324 60 67
356 385 523 560 81 84 150 159 154 165 21 37 7 38 -588 39 -627 2 -603 4 -652
-55 -14 -18 -54 -62 -88 -98 -33 -36 -106 -119 -162 -185 -56 -66 -134 -156
-173 -200 -40 -44 -81 -91 -93 -105 -76 -90 -140 -165 -205 -235 -40 -44 -112
-127 -159 -185 -47 -58 -108 -131 -136 -162 -28 -31 -76 -85 -107 -120 -31
-35 -80 -92 -108 -127 -28 -36 -99 -116 -158 -178 -58 -62 -111 -121 -118
-130 -36 -49 -36 -51 -35 1786 0 1327 -3 1797 -11 1807 -17 20 -931 21 -948 0z"/>
<path d="M13900 7280 c-129 -7 -266 -29 -380 -60 -36 -10 -82 -21 -103 -24
-47 -6 -216 -83 -372 -170 -99 -56 -273 -214 -346 -316 -89 -124 -167 -322
-213 -541 -3 -14 -6 -118 -6 -231 -1 -178 1 -212 18 -264 11 -32 23 -72 26
-87 15 -67 110 -233 199 -348 23 -31 106 -107 183 -169 155 -125 516 -276 834
-350 47 -11 117 -29 155 -41 95 -28 199 -58 260 -74 46 -12 84 -26 160 -61 17
-8 50 -20 75 -28 78 -25 124 -44 170 -70 25 -14 63 -34 85 -45 72 -33 142
-119 176 -217 40 -113 0 -290 -93 -405 -7 -9 -35 -27 -63 -40 -27 -13 -61 -32
-75 -41 -31 -20 -129 -51 -240 -75 -168 -36 -426 -21 -621 37 -36 11 -72 20
-80 20 -8 1 -32 9 -54 20 -22 11 -47 19 -56 20 -27 0 -281 118 -344 160 -16
11 -42 26 -57 35 -23 13 -236 169 -308 226 -32 25 -57 24 -71 -3 -7 -13 -29
-41 -49 -64 -34 -37 -110 -147 -110 -160 0 -9 -137 -188 -180 -234 -35 -38
-64 -77 -125 -166 -12 -17 54 -83 150 -149 31 -22 78 -58 104 -81 56 -49 180
-124 207 -124 10 0 46 -18 79 -40 33 -22 66 -40 73 -40 7 0 30 -8 50 -19 142
-72 345 -145 487 -176 33 -7 89 -20 125 -28 187 -44 712 -68 840 -39 25 6 83
16 130 21 75 10 133 25 255 70 17 6 66 21 110 35 86 26 148 53 207 89 20 12
62 37 95 56 47 27 191 135 226 168 5 5 23 29 40 55 18 26 53 79 80 118 95 140
138 235 172 386 9 38 20 87 25 109 19 82 12 423 -10 500 -11 38 -20 78 -20 89
0 19 -16 56 -72 172 -31 63 -152 231 -203 281 -46 45 -132 113 -142 113 -5 0
-34 17 -65 38 -30 20 -63 43 -74 49 -28 18 -189 96 -264 127 -36 16 -81 35
-100 43 -19 9 -65 22 -101 29 -36 7 -102 26 -145 42 -43 17 -117 40 -164 52
-96 24 -196 53 -285 81 -33 10 -94 28 -135 39 -41 12 -93 29 -115 40 -22 10
-71 30 -110 43 -129 45 -235 130 -286 227 -37 71 -36 285 3 350 44 75 201 200
251 200 10 0 34 7 55 16 90 38 338 56 454 34 47 -10 168 -36 268 -60 19 -4 60
-18 90 -30 30 -12 73 -27 95 -32 35 -9 183 -75 225 -99 8 -5 30 -16 48 -25 18
-8 57 -31 85 -51 29 -20 68 -47 87 -60 19 -13 44 -30 55 -38 41 -32 66 -16
132 85 34 52 84 127 111 165 41 61 124 196 172 283 8 15 27 43 43 63 15 20 27
41 27 46 0 14 -71 73 -174 145 -68 48 -388 218 -410 218 -4 0 -36 14 -72 31
-36 16 -102 39 -147 50 -45 11 -90 25 -100 31 -40 21 -308 59 -477 68 -188 10
-193 10 -380 0z"/>
<path d="M18615 7280 c-101 -10 -279 -46 -316 -65 -15 -8 -36 -15 -46 -15 -53
0 -294 -108 -372 -167 -24 -18 -48 -33 -52 -33 -37 0 -317 -240 -343 -294 -18
-39 -50 -70 -67 -64 -9 3 -12 73 -11 280 0 240 -2 279 -15 290 -21 17 -919 23
-940 6 -11 -8 -13 -554 -13 -2994 0 -2915 1 -2984 19 -2994 12 -6 187 -10 472
-10 509 -1 484 -5 482 73 -1 66 -5 1835 -4 2000 1 114 4 147 14 147 7 0 61
-48 118 -107 245 -251 608 -434 1009 -510 186 -35 698 -10 754 36 7 6 41 17
76 25 148 33 143 31 350 131 93 44 118 60 318 194 53 35 263 252 351 360 86
107 188 272 221 359 13 31 39 98 60 147 21 50 45 108 54 130 17 41 28 83 71
265 27 111 65 454 65 574 -1 109 -37 467 -55 548 -32 137 -56 223 -75 268 -10
25 -28 72 -40 105 -12 33 -40 96 -61 141 -22 44 -39 86 -39 92 0 14 -36 81
-81 152 -19 30 -38 62 -41 70 -19 50 -277 336 -375 417 -150 123 -196 158
-213 167 -8 4 -33 18 -55 31 -38 23 -102 55 -190 96 -265 122 -678 181 -1030
149z m226 -874 c107 -14 180 -33 255 -67 23 -11 48 -19 56 -19 8 0 39 -12 69
-27 182 -93 459 -366 459 -453 0 -11 10 -35 22 -53 51 -75 58 -87 58 -97 0 -5
9 -27 20 -47 11 -21 20 -44 20 -51 0 -7 7 -27 17 -45 69 -134 97 -670 44 -835
-12 -35 -21 -75 -21 -89 0 -13 -9 -45 -19 -71 -11 -26 -31 -77 -46 -115 -21
-56 -50 -113 -103 -204 -77 -133 -239 -302 -357 -373 -22 -13 -59 -40 -82 -61
-31 -26 -56 -38 -89 -43 -26 -3 -52 -10 -58 -15 -6 -5 -40 -17 -76 -26 -262
-69 -579 -55 -826 38 -137 52 -349 204 -441 317 -120 146 -242 350 -258 433
-4 18 -15 59 -26 92 -47 150 -54 208 -54 475 0 214 3 265 18 320 31 113 57
194 77 235 109 237 132 273 255 403 74 78 255 226 308 253 18 8 41 20 52 26
68 36 129 56 275 89 35 8 66 17 69 20 10 10 284 3 382 -10z"/>
<path d="M23425 7280 c-130 -7 -276 -28 -371 -55 -28 -8 -62 -15 -75 -15 -13
0 -48 -11 -77 -25 -30 -14 -59 -25 -65 -25 -6 0 -47 -17 -91 -39 -45 -21 -110
-51 -146 -66 -36 -15 -72 -34 -81 -41 -8 -8 -19 -14 -23 -14 -4 0 -33 -18 -63
-40 -31 -22 -63 -40 -71 -40 -40 0 -423 -347 -484 -438 -10 -15 -36 -52 -58
-82 -22 -30 -56 -77 -75 -105 -19 -27 -45 -63 -59 -80 -29 -36 -126 -223 -126
-245 -1 -8 -9 -33 -20 -55 -11 -22 -20 -47 -20 -55 0 -8 -6 -26 -13 -40 -68
-132 -126 -466 -135 -765 -6 -215 37 -525 96 -700 63 -187 60 -178 153 -369
35 -71 80 -150 99 -175 19 -25 48 -65 65 -87 90 -125 201 -246 305 -335 41
-35 100 -88 130 -119 34 -33 83 -69 125 -89 39 -19 77 -40 85 -47 27 -22 154
-88 305 -159 87 -41 346 -119 450 -135 280 -44 618 -48 841 -11 140 23 267 52
324 75 19 7 71 24 115 37 105 29 345 144 463 221 15 10 47 28 72 40 25 12 70
47 100 77 30 29 93 88 139 130 97 88 296 329 368 446 28 46 73 129 73 136 0 4
18 46 40 94 22 48 40 92 40 98 0 14 34 104 61 162 20 45 44 145 59 250 35 237
40 295 39 460 0 172 -3 215 -29 385 -17 115 -26 159 -50 235 -12 39 -27 93
-35 120 -14 53 -48 144 -70 185 -28 55 -55 118 -55 128 0 7 -18 38 -40 69 -22
32 -40 66 -40 75 0 9 -17 37 -37 61 -21 24 -58 72 -83 106 -70 98 -217 258
-276 302 -30 22 -76 59 -103 82 -46 39 -90 71 -184 132 -21 14 -41 25 -44 25
-4 0 -14 6 -22 14 -14 12 -112 67 -168 94 -10 5 -33 16 -51 25 -53 27 -154 65
-192 72 -19 4 -47 13 -61 21 -64 32 -327 80 -519 94 -144 11 -229 11 -435 0z
m309 -865 c150 -11 222 -21 264 -35 31 -11 63 -20 72 -20 8 -1 33 -9 55 -20
22 -11 47 -20 55 -20 8 0 29 -9 45 -20 17 -11 36 -20 44 -20 8 0 51 -25 96
-55 142 -94 330 -292 384 -405 18 -36 43 -85 57 -110 36 -64 109 -292 119
-375 4 -27 13 -85 21 -129 26 -146 3 -426 -46 -551 -7 -16 -18 -55 -25 -85
-68 -290 -349 -634 -627 -768 -48 -23 -92 -42 -98 -42 -6 0 -24 -7 -39 -15
-27 -13 -132 -37 -295 -66 -99 -17 -346 -6 -467 21 -219 50 -422 151 -554 278
-143 136 -247 272 -294 382 -13 30 -29 69 -37 85 -22 50 -51 144 -80 265 -56
229 -33 697 41 840 8 16 15 36 15 44 0 16 35 92 87 186 16 30 33 66 36 80 9
35 175 220 252 281 95 74 183 131 245 158 30 12 69 29 85 37 63 28 153 53 230
63 44 5 92 14 105 20 33 13 18 13 254 -4z"/>
<path d="M32345 7280 c-77 -4 -171 -15 -210 -23 -38 -8 -95 -18 -125 -22 -84
-10 -256 -71 -364 -128 -38 -20 -73 -37 -77 -37 -15 0 -134 -73 -179 -110 -25
-20 -65 -47 -90 -59 -25 -12 -80 -54 -124 -92 -82 -74 -296 -305 -296 -321 0
-5 -26 -44 -57 -86 -31 -42 -71 -105 -88 -139 -18 -34 -43 -77 -57 -95 -52
-69 -120 -246 -176 -463 -45 -171 -52 -210 -62 -342 -6 -74 -15 -154 -20 -177
-15 -66 -11 -209 11 -386 11 -91 24 -194 29 -230 11 -91 30 -183 41 -196 5 -6
14 -38 19 -70 12 -67 26 -104 81 -220 22 -44 39 -88 39 -97 0 -9 18 -43 40
-74 22 -32 40 -61 40 -65 0 -4 14 -27 30 -50 17 -24 38 -54 47 -68 116 -174
396 -462 517 -532 39 -23 83 -51 98 -63 68 -57 412 -208 563 -247 22 -6 69
-19 105 -28 200 -55 715 -74 935 -35 115 20 285 63 300 75 6 5 33 14 60 21 28
6 55 15 60 20 6 4 28 11 50 15 54 9 239 97 394 186 109 63 145 92 273 213 181
172 221 218 213 244 -6 19 -431 450 -502 508 -47 39 -83 40 -103 3 -18 -34
-228 -207 -299 -246 -36 -20 -88 -52 -116 -69 -46 -30 -159 -75 -188 -75 -6 0
-25 -7 -42 -16 -16 -8 -64 -22 -105 -29 -41 -8 -97 -20 -125 -26 -101 -23
-418 -17 -525 10 -351 87 -603 256 -789 529 -55 80 -97 172 -119 263 -11 41
-26 86 -35 100 -21 33 -34 164 -17 174 7 5 716 7 1575 6 1115 -2 1565 1 1570
8 18 31 4 567 -20 736 -29 203 -66 363 -106 452 -10 23 -19 48 -19 55 -1 7 -9
31 -20 53 -11 22 -19 48 -20 58 0 10 -9 35 -20 57 -11 22 -20 44 -20 49 0 6
-16 35 -35 66 -19 30 -39 65 -44 77 -8 22 -92 150 -150 228 -26 36 -118 142
-168 194 -103 106 -398 306 -452 306 -10 0 -39 17 -64 38 -46 38 -52 40 -322
117 -172 49 -466 71 -740 55z m330 -806 c39 -9 97 -22 130 -29 137 -30 272
-101 420 -220 127 -103 236 -292 314 -547 23 -75 47 -239 38 -263 -9 -21
-2168 -23 -2186 -2 -17 21 11 136 83 332 38 107 108 239 149 285 7 8 31 38 52
65 97 124 177 190 306 252 167 82 220 101 334 122 33 6 69 12 80 15 51 10 216
4 280 -10z"/>
<path d="M11558 5828 c-39 -38 -123 -87 -208 -122 -8 -3 -40 -20 -70 -36 -30
-17 -59 -30 -65 -30 -5 0 -23 -7 -40 -16 -35 -19 -205 -82 -255 -95 -127 -33
-203 -49 -229 -49 -15 0 -34 -6 -40 -13 -11 -15 -17 -2549 -6 -2568 8 -13 962
-12 970 1 7 12 7 2919 -1 2931 -8 13 -40 11 -56 -3z"/>
</g>
</svg>
