<?xml version="1.0" standalone="no"?>
<!DOCTYPE svg PUBLIC "-//W3C//DTD SVG 20010904//EN"
 "http://www.w3.org/TR/2001/REC-SVG-20010904/DTD/svg10.dtd">
<svg version="1.0" xmlns="http://www.w3.org/2000/svg"
 viewBox="118.92 114.82 723.13 526.75"
 preserveAspectRatio="xMidYMid meet">
<metadata>
Created by potrace 1.16, written by Peter Selinger 2001-2019
</metadata>
<g transform="translate(0.000000,760.000000) scale(0.100000,-0.100000)"
fill="#14b8a6" stroke="none">
<path d="M6630 6393 c-230 -36 -263 -45 -430 -115 -142 -60 -238 -108 -278
-140 -19 -16 -51 -38 -71 -50 -44 -27 -95 -71 -136 -117 -16 -19 -56 -62 -88
-95 -58 -62 -119 -146 -177 -246 -17 -30 -44 -76 -60 -103 -30 -49 -95 -237
-125 -362 -22 -92 -37 -423 -24 -530 12 -106 51 -277 79 -345 12 -30 29 -73
37 -95 8 -22 37 -84 64 -138 65 -130 65 -203 0 -382 -10 -27 -28 -81 -39 -120
-42 -140 -64 -211 -82 -260 -10 -27 -28 -84 -40 -125 -13 -41 -31 -96 -41
-122 -11 -26 -19 -55 -19 -65 -1 -10 -9 -36 -20 -58 -11 -22 -19 -46 -20 -52
0 -7 -9 -32 -19 -55 -22 -48 -48 -119 -81 -223 -12 -38 -30 -92 -40 -120 -10
-27 -27 -81 -39 -120 -11 -38 -33 -106 -47 -150 -71 -210 -69 -209 -134 -45
-71 180 -80 205 -80 215 0 6 -6 21 -13 35 -7 14 -25 66 -41 115 -32 105 -61
186 -83 235 -8 19 -21 55 -29 80 -7 25 -32 97 -54 160 -23 63 -48 135 -55 160
-8 25 -28 79 -45 120 -36 87 -80 218 -80 241 0 19 -52 157 -101 267 -41 91
-134 177 -249 228 -61 27 -73 29 -195 29 -138 0 -128 2 -273 -68 -24 -11 -73
-53 -110 -92 -60 -65 -71 -82 -99 -166 -44 -130 -62 -181 -73 -204 -5 -11 -25
-65 -43 -120 -19 -55 -48 -138 -64 -185 -46 -130 -113 -343 -113 -359 0 -17
-49 -162 -60 -176 -4 -5 -14 -32 -23 -60 -8 -27 -25 -75 -37 -105 -12 -30 -28
-77 -36 -104 -7 -26 -18 -54 -23 -60 -12 -14 -61 -162 -61 -183 0 -8 -11 -39
-25 -69 -38 -82 -76 -73 -95 23 -9 53 -44 163 -60 198 -6 11 -14 34 -20 50 -5
17 -27 80 -49 140 -22 61 -47 133 -57 160 -9 28 -25 70 -35 95 -10 25 -31 88
-45 140 -15 52 -33 109 -40 125 -17 39 -72 206 -88 270 -8 28 -20 66 -29 85
-9 19 -32 76 -52 125 -34 84 -46 119 -80 238 -23 78 -56 128 -120 179 -131
106 -186 118 -490 111 -257 -7 -252 -5 -215 -65 11 -18 20 -41 20 -51 0 -10 9
-35 19 -55 33 -64 61 -129 61 -141 0 -7 9 -29 19 -49 37 -73 61 -129 61 -147
0 -22 43 -150 65 -191 8 -16 15 -35 15 -42 0 -17 35 -105 61 -154 10 -20 19
-44 19 -54 0 -9 9 -33 20 -53 10 -20 24 -52 29 -71 12 -43 38 -118 51 -145 16
-35 57 -147 85 -230 14 -44 33 -94 41 -112 8 -17 14 -38 14 -47 0 -9 9 -34 20
-56 11 -22 20 -45 20 -52 1 -7 9 -31 20 -53 11 -22 19 -46 20 -53 0 -12 32
-93 69 -177 10 -22 26 -56 35 -77 9 -20 16 -44 16 -53 0 -9 7 -31 15 -48 8
-18 21 -50 29 -72 103 -287 127 -328 238 -417 157 -126 377 -166 569 -103 115
39 280 206 309 315 6 21 17 51 25 67 8 15 15 34 15 40 0 7 8 32 19 55 10 24
27 61 36 83 10 22 23 65 30 95 7 30 23 80 35 110 12 30 28 75 35 100 20 70 54
172 69 205 8 17 23 51 35 76 12 25 21 55 21 65 1 10 9 37 20 59 11 22 19 46
20 53 0 13 24 76 61 162 11 25 24 70 28 100 5 30 18 78 29 105 29 72 41 106
47 138 10 50 54 34 75 -28 10 -27 32 -85 49 -128 17 -43 31 -84 31 -91 0 -8
16 -48 35 -91 20 -43 47 -114 62 -159 25 -80 44 -130 83 -223 11 -27 24 -66
29 -88 5 -22 28 -87 51 -145 60 -151 90 -231 100 -265 15 -51 50 -148 66 -182
7 -17 14 -37 15 -45 0 -12 27 -67 76 -154 55 -99 199 -199 352 -246 50 -15
246 -5 306 15 28 9 62 19 77 22 14 3 63 39 108 81 77 73 84 84 154 228 40 83
77 167 81 186 4 19 13 42 21 50 7 9 25 54 39 100 28 87 57 171 80 226 7 17 16
53 20 80 4 27 13 63 20 79 16 36 54 129 84 202 12 28 21 59 21 68 0 9 6 29 14
43 30 56 66 141 66 157 0 10 6 31 14 48 8 18 27 61 42 97 59 134 162 267 251
320 57 35 57 35 178 34 86 -1 134 -7 170 -19 62 -22 445 -33 546 -16 127 21
407 102 439 126 8 6 42 25 75 41 76 37 298 213 393 313 111 115 226 293 272
421 13 36 27 70 32 76 25 34 73 204 92 329 25 160 28 217 17 384 -10 156 -21
217 -61 326 -10 28 -21 64 -24 82 -10 60 -110 254 -204 398 -55 84 -264 296
-345 351 -248 167 -451 248 -732 294 -50 9 -318 11 -365 3z m267 -388 c131 -7
295 -50 404 -106 20 -11 45 -19 55 -19 18 0 57 -26 170 -112 98 -74 314 -322
314 -360 0 -9 16 -47 36 -85 60 -113 114 -346 114 -489 0 -89 -30 -287 -54
-353 -9 -24 -16 -50 -16 -58 0 -8 -18 -54 -40 -101 -40 -84 -46 -96 -72 -144
-48 -86 -221 -263 -353 -361 -58 -43 -239 -129 -300 -143 -16 -4 -35 -11 -41
-15 -46 -36 -478 -37 -589 -1 -149 47 -317 47 -410 -2 -16 -9 -34 -16 -39 -16
-20 0 -188 -83 -225 -112 -32 -24 -68 -23 -76 2 -9 28 1 89 30 180 32 102 65
242 65 275 0 26 -55 149 -103 230 -71 121 -120 244 -132 340 -4 28 -13 77 -21
110 -27 117 -6 374 41 509 159 456 528 768 987 832 51 7 105 11 120 9 15 -3
76 -7 135 -10z"/>
<path d="M6375 5031 c-80 -19 -175 -121 -175 -187 0 -99 70 -194 166 -224 101
-31 179 1 226 93 30 60 21 181 -17 237 -45 66 -127 98 -200 81z"/>
<path d="M7090 5013 c-103 -68 -154 -208 -103 -283 72 -109 147 -139 260 -103
79 25 143 115 143 199 0 31 -34 111 -58 137 -58 61 -185 87 -242 50z"/>
</g>
</svg>
